<?xml version="1.0" encoding="utf-8"?><svg version="1.1" id="Layer_1" xmlns="http://www.w3.org/2000/svg" xmlns:xlink="http://www.w3.org/1999/xlink" x="0px" y="0px" viewBox="0 0 122.879 34.346" enable-background="new 0 0 122.879 34.346" xml:space="preserve"><g><path fill-rule="evenodd" clip-rule="evenodd" fill="#E60023" d="M120.326,0H2.553C1.147,0,0,1.147,0,2.553v29.24 c0,1.406,1.147,2.553,2.553,2.553h117.773c1.406,0,2.553-1.146,2.553-2.553V2.553C122.879,1.147,121.732,0,120.326,0L120.326,0 L120.326,0L120.326,0z"/><polygon fill="#C40421" points="30.708,33.451 30.708,0 32.381,0 32.381,33.451 30.708,33.451"/><path fill="#A6031C" d="M44.294,17.739c1.071,0,1.895,0.263,2.469,0.789c0.575,0.525,0.863,1.275,0.863,2.248 c0,0.758-0.177,1.424-0.531,1.998c-0.354,0.574-0.855,1.021-1.503,1.342c-0.649,0.318-1.396,0.479-2.241,0.479h-0.722l0.104,2.699 h-2.963l0.147-2.803l-0.147-6.736L44.294,17.739L44.294,17.739z M43.764,22.529c0.265-0.146,0.459-0.336,0.582-0.566 c0.123-0.23,0.185-0.529,0.185-0.893c0-0.432-0.104-0.748-0.31-0.951c-0.206-0.201-0.53-0.311-0.973-0.33l-0.531,0.043 l-0.059,2.639L43.764,22.529L43.764,22.529z M51.356,24.195l0.118,3.098h-2.963l0.147-2.803l-0.147-6.736h3.007L51.356,24.195 L51.356,24.195z M61.868,24.182l0.117,3.111h-3.213l-2.683-5.102h-0.177l-0.015,1.65l0.118,3.451h-2.683l0.147-2.803l-0.147-6.736 h3.214l2.683,5.1h0.177l-0.088-4.997l2.712-0.163L61.868,24.182L61.868,24.182z M70.477,17.96l-0.162,2.153l-1.945-0.09h-0.178 l-0.074,4.172l0.119,3.098h-2.949l0.148-2.803l-0.074-4.467H65.17l-1.961,0.09l-0.178-0.207l0.162-2.152h7.121L70.477,17.96 L70.477,17.96z M78.055,24.934l0.162,0.207l-0.178,2.152h-6.723l0.148-2.803l-0.148-6.736h6.84l0.164,0.206l-0.193,2.153 l-2.344-0.09h-1.518l-0.029,1.342h1.459l1.533-0.045l0.162,0.207l-0.178,2.152l-1.709-0.043h-1.328l-0.014,0.559l0.029,0.826h1.416 L78.055,24.934L78.055,24.934z M85.572,23.533c0.709,1.1,1.416,2.123,2.123,3.066l-0.043,0.324 c-1.004,0.305-1.992,0.486-2.965,0.545l-0.279-0.236l-0.178-0.367c-0.078-0.158-0.234-0.49-0.471-0.996s-0.443-0.98-0.619-1.422 h-0.988l0.104,2.846h-2.963l0.146-2.803l-0.146-6.736l4.525-0.015c1.072,0,1.896,0.253,2.477,0.759s0.869,1.236,0.869,2.189 c0,0.561-0.139,1.086-0.42,1.578C86.465,22.756,86.074,23.18,85.572,23.533L85.572,23.533z M84.055,20.982 c0-0.393-0.102-0.686-0.303-0.877s-0.527-0.297-0.98-0.316l-0.531,0.043l-0.059,2.463l1.076,0.059 c0.275-0.129,0.477-0.301,0.605-0.516C83.99,21.621,84.055,21.336,84.055,20.982L84.055,20.982z M95.332,24.934l0.162,0.207 l-0.178,2.152h-6.721l0.146-2.803l-0.146-6.736h6.84l0.162,0.206l-0.191,2.153l-2.344-0.09h-1.52l-0.029,1.342h1.459l1.533-0.045 l0.162,0.207l-0.176,2.152l-1.711-0.043h-1.326l-0.016,0.559l0.029,0.826h1.416L95.332,24.934L95.332,24.934z M100.182,17.577 c0.934,0,1.857,0.172,2.771,0.517l-0.471,2.402l-0.414,0.176c-0.412-0.254-0.82-0.457-1.223-0.604 c-0.402-0.148-0.727-0.221-0.973-0.221c-0.227,0-0.406,0.043-0.539,0.133c-0.133,0.088-0.197,0.205-0.197,0.354 c0,0.186,0.1,0.346,0.301,0.479s0.539,0.307,1.01,0.523c0.551,0.246,1.004,0.475,1.357,0.686s0.662,0.502,0.928,0.869 c0.266,0.369,0.398,0.824,0.398,1.365c0,0.6-0.164,1.141-0.494,1.629c-0.328,0.486-0.799,0.871-1.408,1.156 s-1.316,0.428-2.123,0.428c-1.002,0-2.053-0.188-3.154-0.561l0.428-2.564l0.295-0.178c0.451,0.344,0.936,0.617,1.451,0.818 c0.518,0.201,0.947,0.303,1.291,0.303c0.275,0,0.475-0.047,0.598-0.141c0.121-0.094,0.184-0.209,0.184-0.346 c0-0.207-0.105-0.381-0.316-0.523s-0.553-0.316-1.025-0.523c-0.541-0.236-0.984-0.459-1.334-0.67 c-0.35-0.213-0.65-0.502-0.906-0.871s-0.383-0.822-0.383-1.363c0-0.619,0.166-1.178,0.5-1.674s0.801-0.887,1.4-1.172 C98.732,17.719,99.416,17.577,100.182,17.577L100.182,17.577z M110.885,17.96l-0.162,2.153l-1.945-0.09H108.6l-0.072,4.172 l0.117,3.098h-2.949l0.148-2.803l-0.074-4.467h-0.191l-1.961,0.09l-0.176-0.207l0.162-2.152h7.119L110.885,17.96L110.885,17.96z"/><path fill="#A6031C" d="M40.47,8.938l-0.025,1.271h0.686l0.949-0.026l0.076,0.102l-0.085,1.017l-1.042-0.025h-0.602l-0.008,0.296 l0.051,1.753h-1.38l0.076-1.618l-0.076-3.845h3.421l0.076,0.102L42.494,8.98L41.173,8.93L40.47,8.938L40.47,8.938z M45.842,7.778 c0.779,0,1.38,0.233,1.804,0.699c0.423,0.465,0.635,1.127,0.635,1.986c0,0.938-0.231,1.664-0.694,2.181 c-0.463,0.517-1.115,0.775-1.957,0.775c-0.773,0-1.372-0.238-1.795-0.715c-0.424-0.477-0.635-1.154-0.635-2.029 c0-0.926,0.23-1.64,0.69-2.143C44.35,8.029,45,7.778,45.842,7.778L45.842,7.778z M45.723,8.879c-0.265,0-0.477,0.052-0.635,0.157 s-0.274,0.273-0.347,0.508c-0.074,0.234-0.11,0.552-0.11,0.953c0,0.48,0.037,0.857,0.11,1.131c0.073,0.273,0.19,0.47,0.352,0.588 c0.161,0.119,0.379,0.178,0.656,0.178c0.271,0,0.485-0.052,0.644-0.157c0.158-0.104,0.272-0.275,0.343-0.512 c0.071-0.237,0.106-0.562,0.106-0.974c0-0.475-0.037-0.847-0.11-1.118c-0.074-0.271-0.189-0.464-0.347-0.58 C46.226,8.937,46.005,8.879,45.723,8.879L45.723,8.879z M52.696,12.301l-0.093,1.025h-3.075l0.077-1.618l-0.077-3.845h1.397 l-0.076,3.71l0.025,0.626h1.736L52.696,12.301L52.696,12.301z M56.983,12.301l-0.093,1.025h-3.074l0.076-1.618l-0.076-3.845h1.397 l-0.076,3.71l0.025,0.626h1.736L56.983,12.301L56.983,12.301z M60.153,7.778c0.779,0,1.38,0.233,1.804,0.699 c0.423,0.465,0.634,1.127,0.634,1.986c0,0.938-0.23,1.664-0.694,2.181c-0.463,0.517-1.115,0.775-1.956,0.775 c-0.774,0-1.372-0.238-1.796-0.715c-0.423-0.477-0.635-1.154-0.635-2.029c0-0.926,0.23-1.64,0.69-2.143S59.312,7.778,60.153,7.778 L60.153,7.778z M60.035,8.879c-0.265,0-0.477,0.052-0.635,0.157c-0.158,0.104-0.274,0.273-0.348,0.508 c-0.073,0.234-0.11,0.552-0.11,0.953c0,0.48,0.037,0.857,0.11,1.131c0.073,0.273,0.191,0.47,0.352,0.588s0.38,0.178,0.656,0.178 c0.271,0,0.486-0.052,0.644-0.157c0.158-0.104,0.272-0.275,0.342-0.512c0.071-0.237,0.106-0.562,0.106-0.974 c0-0.475-0.037-0.847-0.11-1.118s-0.189-0.464-0.347-0.58S60.317,8.879,60.035,8.879L60.035,8.879z M69.057,13.326h-1.447 l-0.688-2.355h-0.084l-0.678,2.355h-1.457l-1.432-5.463h1.34l0.084,0.746l0.787,3.32h0.086l0.805-2.761l-0.34-1.305h1.389 l0.119,0.881l0.822,3.185h0.084l0.924-3.244l0.143-0.822h1.271L69.057,13.326L69.057,13.326z M78.082,10.632l-0.01,0.788 c0.006,0.638-0.189,1.129-0.588,1.474c-0.398,0.344-0.965,0.517-1.697,0.517c-0.713,0-1.256-0.169-1.631-0.508 s-0.555-0.824-0.539-1.457l0.018-0.83l-0.033-2.753h1.371l-0.059,3.396c-0.006,0.361,0.068,0.626,0.221,0.796 c0.152,0.169,0.389,0.254,0.711,0.254c0.328,0,0.568-0.083,0.725-0.25c0.154-0.166,0.23-0.422,0.225-0.767l-0.061-3.43h1.398 L78.082,10.632L78.082,10.632z M81.625,7.778c0.484,0,0.977,0.096,1.473,0.288l-0.221,1.152l-0.203,0.076 c-0.215-0.141-0.43-0.251-0.643-0.331c-0.215-0.079-0.402-0.118-0.561-0.118c-0.186,0-0.334,0.046-0.443,0.14 c-0.111,0.093-0.166,0.202-0.166,0.326c0,0.141,0.07,0.262,0.207,0.36c0.139,0.099,0.357,0.216,0.658,0.352 c0.314,0.146,0.57,0.281,0.766,0.402c0.195,0.122,0.363,0.284,0.508,0.487c0.145,0.203,0.217,0.452,0.217,0.746 c0,0.327-0.09,0.624-0.268,0.889c-0.178,0.265-0.43,0.476-0.758,0.631c-0.328,0.155-0.705,0.233-1.135,0.233 c-0.57,0-1.135-0.113-1.693-0.339l0.195-1.228l0.143-0.085c0.238,0.198,0.496,0.352,0.775,0.462 c0.279,0.11,0.521,0.165,0.725,0.165c0.213,0,0.377-0.048,0.486-0.144c0.109-0.096,0.166-0.208,0.166-0.339 c0-0.152-0.072-0.279-0.213-0.381s-0.361-0.22-0.66-0.356c-0.305-0.141-0.555-0.272-0.75-0.394 c-0.193-0.121-0.363-0.283-0.504-0.487c-0.141-0.203-0.211-0.452-0.211-0.745c0-0.333,0.088-0.634,0.266-0.902 c0.178-0.269,0.428-0.479,0.746-0.631C80.846,7.854,81.213,7.778,81.625,7.778L81.625,7.778z M88.641,7.778 c0.779,0,1.381,0.233,1.805,0.699c0.424,0.465,0.635,1.127,0.635,1.986c0,0.938-0.23,1.664-0.693,2.181s-1.115,0.775-1.957,0.775 c-0.773,0-1.373-0.238-1.795-0.715c-0.424-0.477-0.637-1.154-0.637-2.029c0-0.926,0.23-1.64,0.691-2.143 C87.148,8.029,87.801,7.778,88.641,7.778L88.641,7.778z M88.523,8.879c-0.266,0-0.479,0.052-0.637,0.157s-0.273,0.273-0.346,0.508 c-0.074,0.234-0.111,0.552-0.111,0.953c0,0.48,0.037,0.857,0.111,1.131c0.072,0.273,0.189,0.47,0.35,0.588 c0.162,0.119,0.381,0.178,0.658,0.178c0.27,0,0.484-0.052,0.643-0.157c0.158-0.104,0.273-0.275,0.344-0.512 s0.105-0.562,0.105-0.974c0-0.475-0.037-0.847-0.109-1.118c-0.074-0.271-0.189-0.464-0.348-0.58S88.805,8.879,88.523,8.879 L88.523,8.879z M97.037,11.598l0.051,1.728h-1.49l-1.941-3.38h-0.084l-0.008,1.457l0.051,1.923h-1.246l0.068-1.609l-0.068-3.854 h1.482l1.949,3.38h0.084l-0.033-3.329l1.262-0.077L97.037,11.598L97.037,11.598z"/><path fill="#FFFFFF" d="M40.47,8.624l-0.025,1.271h0.686l0.949-0.025l0.076,0.102l-0.085,1.017l-1.042-0.025h-0.602l-0.008,0.296 l0.051,1.753h-1.38l0.076-1.618l-0.076-3.845h3.421l0.076,0.102l-0.093,1.016l-1.321-0.051L40.47,8.624L40.47,8.624z M45.842,7.463 c0.779,0,1.38,0.233,1.804,0.699s0.635,1.128,0.635,1.986c0,0.938-0.231,1.665-0.694,2.181c-0.463,0.517-1.115,0.775-1.957,0.775 c-0.773,0-1.372-0.239-1.795-0.716c-0.424-0.477-0.635-1.153-0.635-2.028c0-0.926,0.23-1.641,0.69-2.143 C44.35,7.714,45,7.463,45.842,7.463L45.842,7.463z M45.723,8.564c-0.265,0-0.477,0.053-0.635,0.157 c-0.158,0.105-0.274,0.274-0.347,0.508c-0.074,0.234-0.11,0.552-0.11,0.953c0,0.48,0.037,0.857,0.11,1.131 c0.073,0.273,0.19,0.47,0.352,0.588c0.161,0.119,0.379,0.178,0.656,0.178c0.271,0,0.485-0.052,0.644-0.157s0.272-0.275,0.343-0.512 c0.071-0.237,0.106-0.562,0.106-0.974c0-0.474-0.037-0.847-0.11-1.118c-0.074-0.271-0.189-0.464-0.347-0.58 C46.226,8.622,46.005,8.564,45.723,8.564L45.723,8.564z M52.696,11.986l-0.093,1.025h-3.075l0.077-1.618l-0.077-3.845h1.397 l-0.076,3.709l0.025,0.626h1.736L52.696,11.986L52.696,11.986z M56.983,11.986l-0.093,1.025h-3.074l0.076-1.618l-0.076-3.845h1.397 l-0.076,3.709l0.025,0.626h1.736L56.983,11.986L56.983,11.986z M60.153,7.463c0.779,0,1.38,0.233,1.804,0.699 c0.423,0.466,0.634,1.128,0.634,1.986c0,0.938-0.23,1.665-0.694,2.181c-0.463,0.517-1.115,0.775-1.956,0.775 c-0.774,0-1.372-0.239-1.796-0.716c-0.423-0.477-0.635-1.153-0.635-2.028c0-0.926,0.23-1.641,0.69-2.143 C58.661,7.714,59.312,7.463,60.153,7.463L60.153,7.463z M60.035,8.564c-0.265,0-0.477,0.053-0.635,0.157 c-0.158,0.105-0.274,0.274-0.348,0.508c-0.073,0.234-0.11,0.552-0.11,0.953c0,0.48,0.037,0.857,0.11,1.131 c0.073,0.273,0.191,0.47,0.352,0.588s0.38,0.178,0.656,0.178c0.271,0,0.486-0.052,0.644-0.157c0.158-0.104,0.272-0.275,0.342-0.512 c0.071-0.237,0.106-0.562,0.106-0.974c0-0.474-0.037-0.847-0.11-1.118c-0.073-0.271-0.189-0.464-0.347-0.58 C60.537,8.622,60.317,8.564,60.035,8.564L60.035,8.564z M69.057,13.011h-1.447l-0.688-2.354h-0.084l-0.678,2.354h-1.457 l-1.432-5.462h1.34l0.084,0.745l0.787,3.32h0.086l0.805-2.761l-0.34-1.304h1.389l0.119,0.88l0.822,3.185h0.084l0.924-3.244 l0.143-0.821h1.271L69.057,13.011L69.057,13.011z M78.082,10.317l-0.01,0.788c0.006,0.638-0.189,1.129-0.588,1.473 c-0.398,0.345-0.965,0.517-1.697,0.517c-0.713,0-1.256-0.169-1.631-0.508s-0.555-0.824-0.539-1.457l0.018-0.83l-0.033-2.752h1.371 l-0.059,3.396c-0.006,0.361,0.068,0.626,0.221,0.796s0.389,0.254,0.711,0.254c0.328,0,0.568-0.083,0.725-0.25 c0.154-0.167,0.23-0.422,0.225-0.766l-0.061-3.43h1.398L78.082,10.317L78.082,10.317z M81.625,7.463 c0.484,0,0.977,0.096,1.473,0.288l-0.221,1.152l-0.203,0.076c-0.215-0.141-0.43-0.251-0.643-0.331 c-0.215-0.079-0.402-0.118-0.561-0.118c-0.186,0-0.334,0.046-0.443,0.139c-0.111,0.093-0.166,0.202-0.166,0.327 c0,0.141,0.07,0.261,0.207,0.359c0.139,0.099,0.357,0.216,0.658,0.352c0.314,0.147,0.57,0.281,0.766,0.402 c0.195,0.122,0.363,0.284,0.508,0.487c0.145,0.203,0.217,0.452,0.217,0.745c0,0.328-0.09,0.624-0.268,0.889 c-0.178,0.266-0.43,0.476-0.758,0.631s-0.705,0.233-1.135,0.233c-0.57,0-1.135-0.113-1.693-0.339l0.195-1.228l0.143-0.085 c0.238,0.198,0.496,0.352,0.775,0.462c0.279,0.11,0.521,0.165,0.725,0.165c0.213,0,0.377-0.048,0.486-0.144 c0.109-0.096,0.166-0.209,0.166-0.339c0-0.152-0.072-0.28-0.213-0.381c-0.141-0.102-0.361-0.22-0.66-0.356 c-0.305-0.141-0.555-0.272-0.75-0.394c-0.193-0.122-0.363-0.284-0.504-0.487c-0.141-0.203-0.211-0.452-0.211-0.745 c0-0.333,0.088-0.634,0.266-0.902c0.178-0.268,0.428-0.479,0.746-0.631C80.846,7.54,81.213,7.463,81.625,7.463L81.625,7.463z M88.641,7.463c0.779,0,1.381,0.233,1.805,0.699s0.635,1.128,0.635,1.986c0,0.938-0.23,1.665-0.693,2.181s-1.115,0.775-1.957,0.775 c-0.773,0-1.373-0.239-1.795-0.716c-0.424-0.477-0.637-1.153-0.637-2.028c0-0.926,0.23-1.641,0.691-2.143 C87.148,7.714,87.801,7.463,88.641,7.463L88.641,7.463z M88.523,8.564c-0.266,0-0.479,0.053-0.637,0.157 c-0.158,0.105-0.273,0.274-0.346,0.508c-0.074,0.234-0.111,0.552-0.111,0.953c0,0.48,0.037,0.857,0.111,1.131 c0.072,0.273,0.189,0.47,0.35,0.588c0.162,0.119,0.381,0.178,0.658,0.178c0.27,0,0.484-0.052,0.643-0.157s0.273-0.275,0.344-0.512 c0.07-0.237,0.105-0.562,0.105-0.974c0-0.474-0.037-0.847-0.109-1.118c-0.074-0.271-0.189-0.464-0.348-0.58 C89.025,8.622,88.805,8.564,88.523,8.564L88.523,8.564z M97.037,11.283l0.051,1.728h-1.49l-1.941-3.379h-0.084l-0.008,1.457 l0.051,1.922h-1.246l0.068-1.609l-0.068-3.853h1.482l1.949,3.379h0.084l-0.033-3.328l1.262-0.077L97.037,11.283L97.037,11.283z"/><path fill="#FFFFFF" d="M44.294,17.308c1.071,0,1.895,0.263,2.469,0.788c0.575,0.527,0.863,1.275,0.863,2.248 c0,0.758-0.177,1.424-0.531,1.998c-0.354,0.576-0.855,1.023-1.503,1.342c-0.649,0.32-1.396,0.479-2.241,0.479h-0.722l0.104,2.699 h-2.963l0.147-2.801l-0.147-6.738L44.294,17.308L44.294,17.308z M43.764,22.1c0.265-0.148,0.459-0.338,0.582-0.568 c0.123-0.23,0.185-0.527,0.185-0.891c0-0.434-0.104-0.75-0.31-0.951c-0.206-0.203-0.53-0.313-0.973-0.332L42.717,19.4l-0.059,2.639 L43.764,22.1L43.764,22.1z M51.356,23.766l0.118,3.096h-2.963l0.147-2.801l-0.147-6.738h3.007L51.356,23.766L51.356,23.766z M61.868,23.75l0.117,3.111h-3.213l-2.683-5.102h-0.177l-0.015,1.652l0.118,3.449h-2.683l0.147-2.801l-0.147-6.738h3.214 l2.683,5.101h0.177l-0.088-4.998l2.712-0.162L61.868,23.75L61.868,23.75z M70.477,17.529l-0.162,2.153l-1.945-0.088h-0.178 l-0.074,4.172l0.119,3.096h-2.949l0.148-2.801l-0.074-4.467H65.17l-1.961,0.088l-0.178-0.207l0.162-2.152h7.121L70.477,17.529 L70.477,17.529z M78.055,24.502l0.162,0.207l-0.178,2.152h-6.723l0.148-2.801l-0.148-6.738h6.84l0.164,0.206l-0.193,2.153 l-2.344-0.088h-1.518l-0.029,1.34h1.459l1.533-0.043l0.162,0.205l-0.178,2.152l-1.709-0.043h-1.328l-0.014,0.561l0.029,0.824h1.416 L78.055,24.502L78.055,24.502z M85.572,23.102c0.709,1.102,1.416,2.123,2.123,3.066l-0.043,0.324 c-1.004,0.305-1.992,0.486-2.965,0.545l-0.279-0.234l-0.178-0.369c-0.078-0.158-0.234-0.49-0.471-0.996s-0.443-0.98-0.619-1.422 h-0.988l0.104,2.846h-2.963l0.146-2.801l-0.146-6.738l4.525-0.015c1.072,0,1.896,0.253,2.477,0.759 c0.58,0.508,0.869,1.236,0.869,2.189c0,0.561-0.139,1.086-0.42,1.578C86.465,22.324,86.074,22.748,85.572,23.102L85.572,23.102z M84.055,20.551c0-0.393-0.102-0.686-0.303-0.877s-0.527-0.297-0.98-0.316L82.24,19.4l-0.059,2.463l1.076,0.059 c0.275-0.127,0.477-0.299,0.605-0.516C83.99,21.189,84.055,20.904,84.055,20.551L84.055,20.551z M95.332,24.502l0.162,0.207 l-0.178,2.152h-6.721l0.146-2.801l-0.146-6.738h6.84l0.162,0.206l-0.191,2.153l-2.344-0.088h-1.52l-0.029,1.34h1.459l1.533-0.043 l0.162,0.205l-0.176,2.152l-1.711-0.043h-1.326l-0.016,0.561l0.029,0.824h1.416L95.332,24.502L95.332,24.502z M100.182,17.146 c0.934,0,1.857,0.172,2.771,0.516l-0.471,2.403l-0.414,0.178c-0.412-0.256-0.82-0.457-1.223-0.605 c-0.402-0.146-0.727-0.221-0.973-0.221c-0.227,0-0.406,0.045-0.539,0.133s-0.197,0.207-0.197,0.354c0,0.188,0.1,0.346,0.301,0.479 s0.539,0.309,1.01,0.523c0.551,0.246,1.004,0.475,1.357,0.686c0.354,0.213,0.662,0.502,0.928,0.871 c0.266,0.367,0.398,0.822,0.398,1.363c0,0.6-0.164,1.143-0.494,1.629c-0.328,0.486-0.799,0.871-1.408,1.156 s-1.316,0.428-2.123,0.428c-1.002,0-2.053-0.186-3.154-0.561l0.428-2.564l0.295-0.176c0.451,0.344,0.936,0.615,1.451,0.816 c0.518,0.203,0.947,0.303,1.291,0.303c0.275,0,0.475-0.047,0.598-0.139c0.121-0.094,0.184-0.209,0.184-0.348 c0-0.207-0.105-0.381-0.316-0.523s-0.553-0.316-1.025-0.523c-0.541-0.236-0.984-0.459-1.334-0.67s-0.65-0.502-0.906-0.871 c-0.256-0.367-0.383-0.822-0.383-1.363c0-0.619,0.166-1.176,0.5-1.672c0.334-0.498,0.801-0.888,1.4-1.173 S99.416,17.146,100.182,17.146L100.182,17.146z M110.885,17.529l-0.162,2.153l-1.945-0.088H108.6l-0.072,4.172l0.117,3.096h-2.949 l0.148-2.801l-0.074-4.467h-0.191l-1.961,0.088l-0.176-0.207l0.162-2.152h7.119L110.885,17.529L110.885,17.529z"/><path fill="#A6031C" d="M0.393,31.094c0,0.648,0.266,1.238,0.692,1.664c0.426,0.428,1.016,0.693,1.665,0.693h117.381 c0.648,0,1.238-0.266,1.664-0.691c0.426-0.428,0.691-1.018,0.691-1.666l0.393-28.932v28.932c0,0.758-0.309,1.445-0.807,1.943 s-1.186,0.807-1.941,0.807H2.75c-0.756,0-1.444-0.309-1.942-0.807C0.309,32.539,0,31.852,0,31.094V2.162L0.393,31.094L0.393,31.094 z"/><path fill="#FFFFFF" d="M12.292,27.248c1.066-0.951,1.799-2.311,2.161-3.701c0.145-0.549,0.733-2.793,0.733-2.793 c0.381,0.732,1.505,1.352,2.692,1.352c3.546,0,6.093-3.258,6.093-7.314c0-3.884-3.169-6.788-7.241-6.788 c-5.076,0-7.763,3.406-7.763,7.111c0,1.717,0.917,3.87,2.383,4.55c0.222,0.109,0.343,0.057,0.391-0.16 c0.034-0.168,0.236-0.959,0.328-1.332c0.029-0.115,0.019-0.226-0.082-0.342c-0.482-0.588-0.878-1.674-0.878-2.677 c0-2.591,1.964-5.104,5.307-5.104c2.885,0,4.906,1.963,4.906,4.78c0,3.18-1.606,5.384-3.695,5.384 c-1.153,0-2.021-0.949-1.737-2.123c0.333-1.398,0.975-2.903,0.975-3.907c0-0.902-0.478-1.65-1.491-1.65 c-1.182,0-2.123,1.216-2.123,2.856c0,1.037,0.347,1.742,0.347,1.742s-1.167,4.926-1.38,5.842c-0.236,1.018-0.145,2.441-0.038,3.373 l0.106,0.912L12.292,27.248L12.292,27.248L12.292,27.248L12.292,27.248z"/></g></svg>