<svg xmlns="http://www.w3.org/2000/svg" viewBox="0 0 333333 333333" shape-rendering="geometricPrecision" text-rendering="geometricPrecision" image-rendering="optimizeQuality" fill-rule="evenodd" clip-rule="evenodd"><path d="M-1044 130977h266900c585 0 1062 477 1062 1062v69254c0 585-478 1062-1062 1062H-1044c-585 0-1062-477-1062-1062v-69254c0-585 477-1062 1062-1062zm110651 30487h-6370v-1951c0-911-83-1495-245-1745-161-250-428-372-806-372-412 0-723 166-934 506-211 333-317 839-317 1523 0 878 122 1540 361 1985 233 439 878 978 1940 1612 3040 1818 4958 3313 5748 4475 794 1161 1189 3035 1189 5614 0 1878-222 3263-661 4157-439 890-1283 1635-2545 2235-1256 606-2718 906-4391 906-1835 0-3396-350-4697-1045-1295-694-2140-1579-2546-2652-400-1078-600-2607-600-4580v-1728h6370v3207c0 989 89 1623 267 1907 178 283 495 422 951 422s795-178 1018-539c222-356 333-889 333-1590 0-1551-211-2568-634-3041-439-478-1506-1279-3207-2401-1701-1129-2824-1951-3380-2463-550-511-1011-1217-1373-2117-361-900-544-2051-544-3452 0-2018 255-3496 772-4430s1345-1661 2496-2190c1151-528 2535-789 4163-789 1779 0 3291 289 4547 861 1251 578 2080 1301 2485 2179 406 873 612 2357 612 4452v1045zm18315-8004v17637c0 2001-67 3407-194 4213-133 811-517 1645-1156 2496-639 856-1484 1501-2529 1939-1050 439-2284 662-3707 662-1573 0-2963-262-4163-784-1206-522-2106-1200-2701-2034-600-839-950-1723-1061-2652-106-928-161-2885-161-5858v-15620h6870v19788c0 1151 61 1890 183 2207 122 322 372 483 744 483 423 0 701-178 823-528 122-356 184-1189 184-2501v-19449h6870zm2662 0h6826c2157 0 3791 167 4903 506 1112 333 2007 1017 2691 2040 684 1028 1022 2679 1022 4958 0 1540-239 2613-723 3219-483 611-1439 1073-2862 1400 1590 361 2668 956 3235 1785 567 833 850 2107 850 3830v2446c0 1785-205 3102-611 3963-406 856-1050 1445-1940 1762-889 317-2713 472-5469 472h-7921v-26380zm6870 4502v5870c289-11 511-17 673-17 656 0 1078-167 1256-494 184-334 273-1284 273-2846 0-828-73-1407-223-1740-150-328-344-539-583-628-239-83-706-134-1396-145zm0 9972v7404c945-33 1551-183 1812-456 262-272 390-945 390-2012v-2468c0-1134-117-1818-351-2062-233-239-850-372-1851-406zm26053-6470h-6370v-1951c0-911-83-1495-244-1745s-428-372-806-372c-412 0-723 166-934 506-211 333-317 839-317 1523 0 878 122 1540 361 1985 233 439 878 978 1940 1612 3041 1818 4959 3313 5748 4475 794 1161 1189 3035 1189 5614 0 1878-222 3263-661 4157-439 890-1284 1635-2545 2235-1256 606-2718 906-4391 906-1835 0-3396-350-4697-1045-1295-694-2140-1579-2546-2652-400-1078-600-2607-600-4580v-1728h6370v3207c0 989 89 1623 267 1907 178 283 495 422 950 422 456 0 795-178 1018-539 222-356 333-889 333-1590 0-1551-211-2568-634-3041-439-478-1506-1279-3207-2401-1701-1129-2824-1951-3380-2463-550-511-1011-1217-1373-2117-361-900-544-2051-544-3452 0-2018 255-3496 772-4430s1345-1661 2496-2190c1151-528 2535-789 4163-789 1779 0 3291 289 4547 861 1251 578 2079 1301 2485 2179 406 873 612 2357 612 4452v1045zm18748 3502h-6870v-4580c0-1334-72-2162-217-2496-144-328-467-494-961-494-556 0-912 200-1062 600-150 406-228 1273-228 2607v12240c0 1284 78 2118 228 2513 150 389 489 583 1011 583 506 0 840-194 995-589 156-389 233-1312 233-2763v-3319h6870v1028c0 2735-194 4674-578 5814-383 1145-1239 2146-2557 3007-1323 861-2946 1290-4880 1290-2006 0-3663-361-4969-1090-1301-728-2168-1734-2591-3024-422-1289-633-3224-633-5809v-7704c0-1901 67-3324 194-4274 133-951 517-1868 1168-2746 645-878 1539-1573 2685-2079 1145-506 2463-756 3952-756 2018 0 3685 389 5002 1173 1312 778 2174 1751 2590 2918 411 1167 617 2980 617 5441v2507zm2456-11506h4853c3235 0 5425 122 6570 372s2079 889 2802 1918c723 1022 1083 2663 1083 4908 0 2051-255 3430-767 4135-506 706-1512 1129-3013 1268 1357 339 2274 789 2741 1356 467 561 756 1083 867 1556 117 472 172 1773 172 3902v6965h-6370v-8777c0-1412-111-2285-333-2623-217-340-795-506-1734-506v11906h-6870v-26380zm6870 4502v5870c767 0 1300-106 1607-317 306-211 461-901 461-2062v-1451c0-839-150-1390-444-1651s-840-389-1623-389zm17959-4502v26380h-6870v-26380h6870zm2740 0h6826c2157 0 3791 167 4903 506 1112 333 2007 1017 2691 2040 684 1028 1022 2679 1022 4958 0 1540-239 2613-723 3219-483 611-1439 1073-2862 1400 1590 361 2668 956 3235 1785 567 833 850 2107 850 3830v2446c0 1785-205 3102-611 3963-406 856-1050 1445-1940 1762-889 317-2713 472-5469 472h-7921v-26380zm6870 4502v5870c289-11 511-17 673-17 656 0 1078-167 1256-494 184-334 273-1284 273-2846 0-828-73-1407-223-1740-150-328-344-539-583-628-239-83-706-134-1396-145zm0 9972v7404c945-33 1551-183 1812-456 261-272 390-945 390-2012v-2468c0-1134-117-1818-351-2062-233-239-850-372-1851-406zm11545-14474h11440v5270h-4570v5035h4269v5003h-4269v5803h5036v5269h-11906v-26380zm-151704 1737s-560-3955-2284-5691c-2184-2284-4630-2298-5748-2431-8022-585-20070-585-20070-585h-20s-12043 0-20069 585c-1122 136-3565 146-5748 2431-1725 1736-2273 5691-2273 5691s-571 4640-571 9290v4348c0 4640 571 9290 571 9290s559 3954 2272 5694c2183 2283 5053 2209 6333 2453 4593 439 19509 571 19509 571s12059-21 20080-595c1122-133 3564-146 5748-2431 1725-1736 2284-5694 2284-5694s571-4641 571-9290v-4348c-11-4641-582-9290-582-9290l-3 3zm-34044 18913v-16123l15497 8088-15497 8035z" fill="#c00"/><path d="M303038 149781l2548 2548c-3635 2584-6058 6718-6326 11440h-3564c250-5702 3065-10727 7341-13988zm20848 0c4259 3261 7074 8286 7341 13988h-3564c-267-4722-2709-8856-6308-11440l2530-2548zm-7751 2406v1211c5096 1212 8019 5791 8019 11261v8909l3564 3564v1782h-28510v-1782l3564-3564v-8909c0-5488 2905-10050 8019-11261v-1211c0-1479 1194-2673 2673-2673s2673 1194 2673 2673zm-6255 28510h7128c0 499-89 962-267 1390-463 1069-1407 1853-2566 2102-231 54-463 71-713 71-1978 0-3564-1604-3581-3564z" fill="#909090"/></svg>